<!DOCTYPE svg PUBLIC "-//W3C//DTD SVG 1.1//EN" "http://www.w3.org/Graphics/SVG/1.1/DTD/svg11.dtd">
<svg xmlns="http://www.w3.org/2000/svg" viewBox="0 0 1920 1080" style="background: linear-gradient(135deg, #c10230 0%, #8b0000 30%, #a91b3d 70%, #c10230 100%);">
  <!-- Medical crosses pattern -->
  <defs>
    <pattern id="medical-pattern" x="0" y="0" width="60" height="60" patternUnits="userSpaceOnUse">
      <g opacity="0.08">
        <rect x="22" y="10" width="16" height="40" fill="#ffd700"/>
        <rect x="10" y="22" width="40" height="16" fill="#ffd700"/>
      </g>
    </pattern>

    <pattern id="medical-pattern-white" x="0" y="0" width="80" height="80" patternUnits="userSpaceOnUse">
      <g opacity="0.05">
        <rect x="30" y="15" width="20" height="50" fill="white"/>
        <rect x="15" y="30" width="50" height="20" fill="white"/>
      </g>
    </pattern>

    <filter id="blur">
      <feGaussianBlur in="SourceGraphic" stdDeviation="3"/>
    </filter>

    <filter id="glow">
      <feGaussianBlur stdDeviation="4" result="coloredBlur"/>
      <feMerge>
        <feMergeNode in="coloredBlur"/>
        <feMergeNode in="SourceGraphic"/>
      </feMerge>
    </filter>
  </defs>

  <!-- Background pattern -->
  <rect width="100%" height="100%" fill="url(#medical-pattern)"/>
  <rect width="100%" height="100%" fill="url(#medical-pattern-white)"/>

  <!-- Floating medical elements -->
  <g opacity="0.4">
    <!-- Stethoscope shape -->
    <path d="M400 200 C400 150, 450 150, 450 200 C450 250, 400 250, 400 200 M425 225 Q425 300, 500 350"
          stroke="white" stroke-width="8" fill="none" filter="url(#blur)">
      <animateTransform attributeName="transform"
                        type="translate"
                        values="0,0; 20,10; 0,0"
                        dur="6s"
                        repeatCount="indefinite"/>
    </path>

    <!-- Heart shape -->
    <path d="M800,400 C800,350 850,300 900,300 C950,300 1000,350 1000,400 C1000,450 950,500 900,550 C850,500 800,450 800,400 Z"
          fill="#ffd700" opacity="0.3" filter="url(#glow)">
      <animateTransform attributeName="transform"
                        type="scale"
                        values="1; 1.15; 1"
                        dur="4s"
                        repeatCount="indefinite"/>
    </path>

    <!-- DNA helix -->
    <g transform="translate(1200,300)">
      <path d="M0,0 Q20,50 0,100 Q-20,150 0,200 Q20,250 0,300"
            stroke="white"
            stroke-width="6"
            fill="none"
            opacity="0.4">
        <animateTransform attributeName="transform"
                          type="rotate"
                          values="0; 360"
                          dur="8s"
                          repeatCount="indefinite"/>
      </path>
    </g>

    <!-- Medical cross -->
    <g transform="translate(300,600)">
      <rect x="-30" y="-10" width="60" height="20" fill="rgba(255,255,255,0.3)"/>
      <rect x="-10" y="-30" width="20" height="60" fill="rgba(255,255,255,0.3)"/>
      <animateTransform attributeName="transform"
                        type="rotate"
                        values="0; 360"
                        dur="10s"
                        repeatCount="indefinite"/>
    </g>

    <!-- Pill shapes -->
    <ellipse cx="1400" cy="600" rx="40" ry="20" fill="rgba(255,255,255,0.2)">
      <animateTransform attributeName="transform"
                        type="translate"
                        values="0,0; 30,20; 0,0"
                        dur="4s"
                        repeatCount="indefinite"/>
    </ellipse>

    <!-- More medical crosses scattered -->
    <g opacity="0.15">
      <rect x="150" y="450" width="30" height="8" fill="white"/>
      <rect x="161" y="439" width="8" height="30" fill="white"/>

      <rect x="1600" y="200" width="30" height="8" fill="white"/>
      <rect x="1611" y="189" width="8" height="30" fill="white"/>

      <rect x="600" y="800" width="30" height="8" fill="white"/>
      <rect x="611" y="789" width="8" height="30" fill="white"/>
    </g>
  </g>
</svg>
